<?xml version="1.0" standalone="no"?>
<svg xmlns:xlink="http://www.w3.org/1999/xlink" id="wave" style="transform:rotate(0deg); transition: 0.3s" viewBox="0 0 1440 190" version="1.1" xmlns="http://www.w3.org/2000/svg"><defs><linearGradient id="sw-gradient-0" x1="0" x2="0" y1="1" y2="0"><stop stop-color="rgba(0, 240.072, 248.49, 1)" offset="0%"/><stop stop-color="rgba(0, 207.508, 193.449, 1)" offset="100%"/></linearGradient></defs><path style="transform:translate(0, 0px); opacity:1" fill="url(#sw-gradient-0)" d="M0,152L60,145.7C120,139,240,127,360,104.5C480,82,600,51,720,47.5C840,44,960,70,1080,88.7C1200,108,1320,120,1440,110.8C1560,101,1680,70,1800,76C1920,82,2040,127,2160,139.3C2280,152,2400,133,2520,120.3C2640,108,2760,101,2880,95C3000,89,3120,82,3240,85.5C3360,89,3480,101,3600,95C3720,89,3840,63,3960,60.2C4080,57,4200,76,4320,98.2C4440,120,4560,146,4680,152C4800,158,4920,146,5040,142.5C5160,139,5280,146,5400,129.8C5520,114,5640,76,5760,69.7C5880,63,6000,89,6120,91.8C6240,95,6360,76,6480,85.5C6600,95,6720,133,6840,139.3C6960,146,7080,120,7200,110.8C7320,101,7440,108,7560,104.5C7680,101,7800,89,7920,88.7C8040,89,8160,101,8280,107.7C8400,114,8520,114,8580,114L8640,114L8640,190L8580,190C8520,190,8400,190,8280,190C8160,190,8040,190,7920,190C7800,190,7680,190,7560,190C7440,190,7320,190,7200,190C7080,190,6960,190,6840,190C6720,190,6600,190,6480,190C6360,190,6240,190,6120,190C6000,190,5880,190,5760,190C5640,190,5520,190,5400,190C5280,190,5160,190,5040,190C4920,190,4800,190,4680,190C4560,190,4440,190,4320,190C4200,190,4080,190,3960,190C3840,190,3720,190,3600,190C3480,190,3360,190,3240,190C3120,190,3000,190,2880,190C2760,190,2640,190,2520,190C2400,190,2280,190,2160,190C2040,190,1920,190,1800,190C1680,190,1560,190,1440,190C1320,190,1200,190,1080,190C960,190,840,190,720,190C600,190,480,190,360,190C240,190,120,190,60,190L0,190Z"/><defs><linearGradient id="sw-gradient-1" x1="0" x2="0" y1="1" y2="0"><stop stop-color="rgba(241.659, 0, 0, 1)" offset="0%"/><stop stop-color="rgba(246.213, 0, 0, 1)" offset="100%"/></linearGradient></defs><path style="transform:translate(0, 50px); opacity:0.9" fill="url(#sw-gradient-1)" d="M0,38L60,47.5C120,57,240,76,360,91.8C480,108,600,120,720,107.7C840,95,960,57,1080,44.3C1200,32,1320,44,1440,57C1560,70,1680,82,1800,72.8C1920,63,2040,32,2160,25.3C2280,19,2400,38,2520,44.3C2640,51,2760,44,2880,57C3000,70,3120,101,3240,123.5C3360,146,3480,158,3600,164.7C3720,171,3840,171,3960,161.5C4080,152,4200,133,4320,126.7C4440,120,4560,127,4680,117.2C4800,108,4920,82,5040,60.2C5160,38,5280,19,5400,12.7C5520,6,5640,13,5760,19C5880,25,6000,32,6120,44.3C6240,57,6360,76,6480,91.8C6600,108,6720,120,6840,129.8C6960,139,7080,146,7200,139.3C7320,133,7440,114,7560,91.8C7680,70,7800,44,7920,47.5C8040,51,8160,82,8280,95C8400,108,8520,101,8580,98.2L8640,95L8640,190L8580,190C8520,190,8400,190,8280,190C8160,190,8040,190,7920,190C7800,190,7680,190,7560,190C7440,190,7320,190,7200,190C7080,190,6960,190,6840,190C6720,190,6600,190,6480,190C6360,190,6240,190,6120,190C6000,190,5880,190,5760,190C5640,190,5520,190,5400,190C5280,190,5160,190,5040,190C4920,190,4800,190,4680,190C4560,190,4440,190,4320,190C4200,190,4080,190,3960,190C3840,190,3720,190,3600,190C3480,190,3360,190,3240,190C3120,190,3000,190,2880,190C2760,190,2640,190,2520,190C2400,190,2280,190,2160,190C2040,190,1920,190,1800,190C1680,190,1560,190,1440,190C1320,190,1200,190,1080,190C960,190,840,190,720,190C600,190,480,190,360,190C240,190,120,190,60,190L0,190Z"/></svg>